<?xml version="1.0" encoding="utf-8"?>
<!-- Generator: Adobe Illustrator 26.5.0, SVG Export Plug-In . SVG Version: 6.00 Build 0)  -->
<svg version="1.1" id="レイヤー_1" xmlns="http://www.w3.org/2000/svg" xmlns:xlink="http://www.w3.org/1999/xlink" x="0px"
	 y="0px" viewBox="0 0 800 1000" style="enable-background:new 0 0 800 1000;" xml:space="preserve">
<style type="text/css">
	.st0{display:none;}
	.st1{fill:#FFCC01;}
	.st2{fill:#52D32B;}
	.st3{fill:#019CFF;}
	.st4{fill:#FE6300;}
	.st5{fill:#00488C;stroke:#FFFFFF;stroke-width:17;stroke-linecap:round;stroke-linejoin:round;stroke-miterlimit:10;}
	.st6{display:inline;}
	.st7{fill:#FFDBB0;}
	.st8{fill:#FBE1C1;}
	.st9{fill:#00488C;}
	.st10{fill:#FFE1BF;}
	
		.st11{opacity:0.1;clip-path:url(#SVGID_00000082335262778197731300000004154497131048795299_);fill:#913616;enable-background:new    ;}
	.st12{fill:#3B3732;}
	.st13{opacity:0.5;fill:#53463E;enable-background:new    ;}
	.st14{opacity:0.3;fill:#8C3415;enable-background:new    ;}
	.st15{fill:#FFFFFF;}
	.st16{clip-path:url(#SVGID_00000176022021049057651200000016758319288177870755_);fill:#4D4D4D;}
	.st17{clip-path:url(#SVGID_00000016797902702129453880000006194913117277815980_);fill:#4D4D4D;}
	
		.st18{opacity:0.4;fill:none;stroke:#4D4D4D;stroke-linecap:round;stroke-linejoin:round;stroke-miterlimit:10;enable-background:new    ;}
	.st19{fill:#999999;}
	.st20{fill:#525252;}
	.st21{fill:#757575;}
	.st22{fill:#D9D9D9;}
	.st23{fill:#344754;}
	.st24{fill:none;stroke:#FFFFFF;stroke-width:3.9971;stroke-linecap:round;stroke-miterlimit:10;}
	.st25{fill:#730B20;}
	.st26{fill:#6EA6DB;}
	.st27{fill:#F5F5F5;}
	.st28{opacity:0.7;fill:#152836;enable-background:new    ;}
	.st29{fill:#E3E3E3;}
	.st30{fill:#0053A1;}
	
		.st31{opacity:0.1;clip-path:url(#SVGID_00000091727238697092199040000002883419836711861924_);fill:#913616;enable-background:new    ;}
	.st32{clip-path:url(#SVGID_00000142161989292727753020000003849575592780722096_);fill:#4D4D4D;}
	.st33{clip-path:url(#SVGID_00000033362990602831575130000018193144986962342829_);fill:#4D4D4D;}
	.st34{fill:none;stroke:#333333;stroke-width:2;stroke-linejoin:round;stroke-miterlimit:2;}
	.st35{fill:none;stroke:#333333;stroke-width:2;stroke-linecap:round;stroke-linejoin:round;stroke-miterlimit:2;}
</style>
<g id="draw" class="st0">
	
		<image style="display:inline;overflow:visible;enable-background:new    ;" width="3026" height="4035" xlink:href="66E56A51.jpeg"  transform="matrix(0.2656 0 0 0.2656 -6.8487 -46)">
	</image>
</g>
<g id="bg">
	<rect class="st1" width="400" height="500"/>
	<rect y="500" class="st2" width="400" height="500"/>
	<rect x="400" class="st3" width="400" height="500"/>
	<rect x="400" y="500" class="st4" width="400" height="500"/>
	<path class="st5" d="M514.8,854.7l-58.6-4.4v-26.9h-5.8v-10.5h11.3V554.1h10.4c-3.1,3.3-5.3,7.2-5.6,11c-0.5,6,4.4,11.1,8.8,14.1
		c-2,10.5-1.1,22.8,3,29.5c6.6,10.9,27.9,5.7,35,0c8.7-6.9,13.1-15.3,10.9-31.4c-1-7.6-2.7-19.3-4.7-32.6c0.3,0.1,0.7,0.1,1,0.1
		l3.1-0.4c1.5-0.2,2.6-1.6,2.5-3.1l-2.8-22.4c-0.2-1.5-1.6-2.6-3.1-2.5l-3.1,0.4c-0.6,0.1-1.2,0.4-1.6,0.8
		c-2.4-16.6-4.9-33-6.7-45.2l15.9-4.2l-9.6-36.4l-4.5,1.2L486.8,323v-1l-34.5-12.8v-5.7l-11.3-4.2L439,271l7.6-6.2
		c1.3-1.1,2.2-2.5,2.4-4.2l2.7-15.7l6.1-2.6c1.3-0.5,2.3-1.5,2.9-2.7l13.7-29.1c0.5-1,0.5-2.1,0.2-3.1l-1.2-3.3
		c5.5-10.3,14.9-33.8,13.7-68c-0.7-18.1-11.8-37.8-14.2-39.6c2.7,1.8,8.9,6.1,9.9,7.5c-4.2-13.6-31.4-33.7-60.2-38
		c-31.5-4.7-58,6.8-67.2,18.6c-18.9,5.5-45.3,48.3-37.4,102.7c0.6-4.3,2.6-11.3,3.5-13.2c-0.4,8.1,2.8,18.7,6.1,27l-2.2,6.4
		c-0.4,1-0.3,2.1,0.2,3.1l13.7,29.1c0.6,1.2,1.6,2.2,2.9,2.7l6.1,2.6l2.8,16.1c0.2,1.4,1,2.6,2.1,3.5l12.3,10.1l1.4,5.6l2.9,2.4
		v14.5h-5l-16.7,6.2v5.7L313.2,322v1l-23.9,109.9l-4.5-1.2l-9.6,36.4l12.3,3.2l-3.7,16.8l-54.5-12.8c-2.7-0.6-5.4,1-6,3.7
		l-20.6,87.6c-0.6,2.7,1,5.4,3.7,6l44,10.3c-5.9,5.7-5.6,9.4-3.8,12.4c1.6,2.7,5.5,2.8,10.1,1.7c2.8,9.2,13.5,17.5,27.5,20.2
		c17.7,3.3,33.9-3.7,36.2-15.6c0.1-0.7,0.2-1.4,0.2-2.1l17.6,4.1v209.3h11.3v10.5h-5.8v26.9l-58.6,4.4c-6.8,0-12.3,5.4-12.3,12.1v15
		v6.7v12.1h119.7v-12.1v-6.7v-7v-28.1v-23.2h-3.9v-10.5h5.5V575.1h0c0-0.2,0-0.3,0-0.4c0-3.2,2.6-5.8,5.8-5.8s5.8,2.6,5.8,5.8
		c0,0.2,0,0.3,0,0.4h0v237.9h5.5v10.5h-3.9v23.2v28.1v7v6.7v12.1h119.7v-12.1v-6.7v-15C527.1,860.1,521.6,854.7,514.8,854.7z
		 M400,393.7L400,393.7l0,14h0V393.7z M400,387.2L400,387.2l0-14h0V387.2z M400,414.2L400,414.2l0,14h0V414.2z M400,327.4v39.5h0
		L400,327.4l0-0.2h0V327.4z M400,434.6L400,434.6l0,14h0V434.6z M400,455.1L400,455.1l0,14h0V455.1z M400,540v-64.5h0L400,540
		L400,540L400,540z"/>
</g>
<g id="content" class="st0">
	<g class="st6">
		
			<image style="overflow:visible;opacity:0.2;enable-background:new    ;" width="344" height="855" xlink:href="66E56A55.png"  transform="matrix(1 0 0 1 194 56)">
		</image>
		<g>
			<g>
				<path class="st7" d="M505.9,452.6c0,0,14.1,94.8,18.2,124.7c2.2,16-2.3,24.4-10.9,31.4c-7.1,5.7-28.4,10.9-35,0
					c-6.6-10.9-5.1-36.5,4.4-45.2c9.5-8.8-4.4-94.1-4.4-94.1L505.9,452.6z"/>
				<path class="st8" d="M291.3,454.6L279,510c0,0-3.7,55.1-20.8,66.9c-13.6,9.3-14,14.6-11.5,18.5c3.1,5,13.9,1,23.1-2.9
					s16.1-10.3,16.1-10.3l30.7-4.6l6.9-104.5L291.3,454.6z"/>
				<rect x="364.4" y="297.1" class="st9" width="71.2" height="15.2"/>
				<g>
					<g>
						<polygon id="XMLID_39_" class="st10" points="430.3,306.1 430.3,265.7 369.5,265.7 369.5,306.1 363.6,308.7 369.5,312.8 
							369.5,327.1 430.3,327.1 430.3,312.8 436.1,308.7 						"/>
					</g>
					<g>
						<defs>
							<polygon id="SVGID_1_" points="430.3,306.1 430.3,265.7 369.5,265.7 369.5,306.1 363.6,308.7 369.5,312.8 369.5,327.1 
								430.3,327.1 430.3,312.8 436.1,308.7 							"/>
						</defs>
						<clipPath id="SVGID_00000081605909298041909250000005412541359831715263_">
							<use xlink:href="#SVGID_1_"  style="overflow:visible;"/>
						</clipPath>
						
							<polyline style="opacity:0.1;clip-path:url(#SVGID_00000081605909298041909250000005412541359831715263_);fill:#913616;enable-background:new    ;" points="
							366.6,280.3 390.4,300.1 442,311.5 437.1,246.2 356.8,241 						"/>
					</g>
				</g>
				<g>
					<path class="st7" d="M329.6,195.1l-4.3,12.3c-0.4,1-0.3,2.1,0.2,3.1l13.7,29.1c0.6,1.2,1.6,2.2,2.9,2.7l8.2,3.5l0.9-46.8
						l-19.8-4.8C330.5,194,329.8,194.4,329.6,195.1z"/>
					<path class="st7" d="M470.2,195.1l4.3,12.3c0.4,1,0.3,2.1-0.2,3.1l-13.7,29.1c-0.6,1.2-1.6,2.2-2.9,2.7l-8.2,3.5l-0.9-46.8
						l19.8-4.8C469.2,194,469.9,194.4,470.2,195.1z"/>
				</g>
				<path class="st12" d="M355.2,84.5c-18.9,5.5-45.3,48.3-37.4,102.7c0.6-4.3,2.6-11.3,3.5-13.2c-0.7,14.3,9.7,36.7,12.8,39.7
					c-0.2-2.7,0.5-9.6,1-11.5c1,4,12.6,33.5,12.6,33.5s101.6-3.3,106.6-10.5c1.5-1.9,1-2.7,3-6.4c0.2-0.3,11.3-19.3,11.6-20.9
					c0.6,3.7,1,11.8,1,11.8c2.5-2.9,18.8-29.3,17.1-73.6c-0.7-18.1-11.8-37.8-14.2-39.6c2.7,1.8,8.9,6.1,9.9,7.5
					c-4.2-13.6-31.4-33.7-60.2-38C390.9,61.3,364.4,72.7,355.2,84.5z"/>
				<path class="st10" d="M440.8,158.5l-40.9-10.4l-54.5-11.5l-4.8,64.9l10.2,59.5c0.2,1.4,1,2.6,2.1,3.5l36.5,30c6,5,14.9,5,20.9,0
					l36.2-29.8c1.3-1.1,2.2-2.5,2.4-4.2l10.1-59.1L440.8,158.5z"/>
				<path class="st13" d="M353.9,183.2c0,0,7.4-3.4,8.3-3.4c3.7,0.3,24.8,7,27.5,8.9c0.9,0.7,3.5,8.3,3.5,8.3s-2-11.4-3-12
					c-2.8-1.9-23.9-7-27.3-7.4C361.8,177.5,353.9,183.2,353.9,183.2z"/>
				<path class="st14" d="M410.4,238.9c-2.4,0.9-8.6,2.9-9.8,2.9c0,0,0,0-0.1,0s0,0-0.1,0c-1.2,0-7.4-2-9.8-2.9c0,0,7.8,5.2,9.8,5.3
					c0,0,0,0,0.1,0s0,0,0.1,0C402.5,244.1,410.4,238.9,410.4,238.9z"/>
				<path class="st15" d="M380,258c10.7,1.4,32,0.3,42.8-3.7c0.8-0.3,1.5,0.5,1.1,1.3c-3.9,6.9-14.1,10.7-21.8,11.2
					c-7.9,0.6-18.7-2.5-23-7.4C378.7,258.8,379.2,257.9,380,258z"/>
				<g>
					<g>
						<path id="XMLID_38_" class="st15" d="M373.4,197.5c-8.8-2-15.5,2-17.4,6.8c1.2,1.6,4.4,2.8,7.1,3.4c3.4,0.7,17.5,2.9,22,3.3
							C385.1,205.8,382.2,199.5,373.4,197.5z"/>
					</g>
					<g>
						<defs>
							<path id="SVGID_00000040572258334218296940000006298962419133532837_" d="M373.4,197.5c-8.8-2-15.5,2-17.4,6.8
								c1.2,1.6,4.4,2.8,7.1,3.4c3.4,0.7,17.5,2.9,22,3.3C385.1,205.8,382.2,199.5,373.4,197.5z"/>
						</defs>
						<clipPath id="SVGID_00000155829584462803182550000018344524596277989519_">
							<use xlink:href="#SVGID_00000040572258334218296940000006298962419133532837_"  style="overflow:visible;"/>
						</clipPath>
						
							<ellipse style="clip-path:url(#SVGID_00000155829584462803182550000018344524596277989519_);fill:#4D4D4D;" cx="373" cy="203.5" rx="7.7" ry="7.4"/>
					</g>
				</g>
				<g>
					<g>
						<path id="XMLID_37_" class="st15" d="M428.1,197.1c8.2-1.8,14.6,1.9,16.7,6.7c-1.2,1.7-4.3,3.3-7.1,4
							c-3.6,0.8-17.4,3.2-21.9,3.6C415.7,206.2,419.7,198.9,428.1,197.1z"/>
					</g>
					<g>
						<defs>
							<path id="SVGID_00000027599107742355485860000013297187939267024006_" d="M428.1,197.1c8.2-1.8,14.6,1.9,16.7,6.7
								c-1.2,1.7-4.3,3.3-7.1,4c-3.6,0.8-17.4,3.2-21.9,3.6C415.7,206.2,419.7,198.9,428.1,197.1z"/>
						</defs>
						<clipPath id="SVGID_00000142172471266466339450000008339506761029575867_">
							<use xlink:href="#SVGID_00000027599107742355485860000013297187939267024006_"  style="overflow:visible;"/>
						</clipPath>
						
							<ellipse style="clip-path:url(#SVGID_00000142172471266466339450000008339506761029575867_);fill:#4D4D4D;" cx="428.6" cy="203.6" rx="7.9" ry="7.6"/>
					</g>
				</g>
				<path class="st14" d="M397.7,274.3c0.5,1.7,2.9,2.5,4.2,2.5c1.9-0.1,3.7-1.6,4-3C403.9,274.3,399.6,274.6,397.7,274.3z"/>
				<path class="st12" d="M368.6,146.6c8.6,23.4,40.5,54.6,53.9,57.9c-5.3-4-15.2-20.5-18.6-29.9c8.5,14.9,20.1,22,25.2,23.9
					c-2.2-2.5-7.3-11.1-8.9-15c9.3,11.9,28.4,22.9,33.2,25c0.7,4.8,1,13.9,0.7,19c4.1-4.9,11.8-19,14.2-29.4
					c2-8.3,0.4-20.9,0.4-20.9l-60.7-73.8L351,121.8l-19.6,57l3.1,23.6c0,0,7,23.6,10.9,28.4c-1-8.3,0.6-51.7,1-56.5
					C351.8,171.3,364,160.1,368.6,146.6z"/>
				<polyline class="st18" points="402.3,261.7 409,261.3 411.1,262.1 413,259.4 415.9,260.7 416.5,259.2 419.2,258 				"/>
				<path class="st7" d="M489.9,545.1c-8.3-1.2-22.6,10-23.5,19.9c-0.9,9.9,12.9,17.2,15,17C483.6,581.8,489.9,545.1,489.9,545.1z"
					/>
				<path class="st19" d="M342.8,604.7l-136.3-32c-2.7-0.6-4.4-3.3-3.7-6l20.6-87.6c0.6-2.7,3.3-4.4,6-3.7l136.3,32
					c2.7,0.6,4.4,3.3,3.7,6L348.8,601C348.1,603.7,345.4,605.3,342.8,604.7z"/>
				<g>
					<path class="st15" d="M296.4,540.6c1.1-4.6,5.4-6,5.7-6.1c-1.4-3.7-4.8-4.9-5.9-5.2c-2.8-1-6,0.4-7.5,0.1
						c-1.4-0.3-3.3-2.6-5.7-3c-3-0.7-6.3,0.5-8.5,2.8c-4.6,4.8-4.1,13.7-2.1,19.1c1,2.7,2.3,5.5,4.7,6c2.3,0.4,3.5-0.7,6.4,0
						c2.7,0.6,3.2,2.3,5.7,2.8s4.6-1.3,6.6-3.1c2.5-2.2,3.8-4.4,3.8-4.6C299.5,549,295.2,546.1,296.4,540.6z"/>
					<path class="st15" d="M295,525.8c1.7-1.3,3-3.2,3.2-5.5c-1.9-0.3-4.3,0.3-6.1,1.5c-1.5,1-3,3.1-3.2,5.2
						C291,527.8,293.3,527.1,295,525.8z"/>
				</g>
				
					<ellipse transform="matrix(0.1861 -0.9825 0.9825 0.1861 -350.4704 768.061)" class="st8" cx="288.4" cy="595.6" rx="22.1" ry="32.6"/>
				
					<rect x="477.6" y="525" transform="matrix(0.9926 -0.1217 0.1217 0.9926 -61.1953 64.4948)" class="st20" width="39.7" height="16.5"/>
				<path class="st21" d="M523.6,544.3l-3.1,0.4c-1.5,0.2-3-0.9-3.1-2.5l-2.8-22.4c-0.2-1.5,0.9-3,2.5-3.1l3.1-0.4
					c1.5-0.2,3,0.9,3.1,2.5l2.8,22.4C526.2,542.8,525.2,544.2,523.6,544.3z"/>
				<rect x="272.9" y="881.8" class="st22" width="119.7" height="18.9"/>
				<rect x="349.6" y="788.7" class="st8" width="39.1" height="65.2"/>
				<rect x="343.8" y="823.5" class="st23" width="48.8" height="51.3"/>
				<path class="st23" d="M272.9,888.5h119.7v-41.8l-107.4,8.1c-6.8,0-12.3,5.4-12.3,12.1V888.5z"/>
				<line class="st24" x1="332.3" y1="849.6" x2="332.3" y2="866"/>
				<line class="st24" x1="320" y1="849.6" x2="320" y2="866"/>
				<rect x="407.5" y="881.8" class="st22" width="119.7" height="18.9"/>
				<rect x="411.3" y="788.7" class="st8" width="39.1" height="65.2"/>
				<rect x="407.5" y="823.5" class="st23" width="48.8" height="51.3"/>
				<path class="st23" d="M527.1,888.5H407.5v-41.8l107.4,8.1c6.8,0,12.3,5.4,12.3,12.1V888.5z"/>
				<line class="st24" x1="467.7" y1="849.6" x2="467.7" y2="866"/>
				<line class="st24" x1="480" y1="849.6" x2="480" y2="866"/>
				<path class="st25" d="M405.8,527.5V540H400h-5.8v-12.5h-55.9v285.4h55.9V575.1h0c0-0.2,0-0.3,0-0.4c0-3.2,2.6-5.8,5.8-5.8
					s5.8,2.6,5.8,5.8c0,0.2,0,0.3,0,0.4h0v237.9h55.9V527.5H405.8z"/>
				<polygon class="st9" points="322.5,340.3 313.2,323 285.9,448.6 338.8,455.1 				"/>
				
					<rect x="291" y="427" transform="matrix(0.254 -0.9672 0.9672 0.254 -211.5866 641.1271)" class="st26" width="37.7" height="61.5"/>
				<polygon class="st27" points="400,544.3 400,322.9 362.8,312 362.8,544.3 				"/>
				<rect x="359.3" y="366.8" class="st28" width="40.9" height="6.5"/>
				<rect x="359.3" y="387.2" class="st28" width="40.9" height="6.5"/>
				<rect x="359.3" y="407.7" class="st28" width="40.9" height="6.5"/>
				<rect x="359.3" y="428.2" class="st28" width="40.9" height="6.5"/>
				<rect x="359.3" y="448.6" class="st28" width="40.9" height="6.5"/>
				<rect x="359.3" y="469.1" class="st28" width="40.9" height="6.5"/>
				<path class="st29" d="M400,327.4c-12.4,0-37.2-6.7-37.2-12.4v-9c0,5.7,24.8,12.4,37.2,12.4"/>
				<polyline class="st30" points="364.4,339.2 364.4,554.1 313.2,554.1 313.2,322 364.4,302.9 				"/>
				<polygon class="st9" points="364.4,297.1 364.4,342.8 347.7,355 347.7,303.4 				"/>
				<rect x="313.2" y="546.2" class="st9" width="50.7" height="7.9"/>
				<polygon class="st9" points="477.5,340.3 486.8,323 514.1,448.6 461.2,455.1 				"/>
				
					<rect x="459.4" y="438.9" transform="matrix(0.9672 -0.254 0.254 0.9672 -100.1966 139.5116)" class="st26" width="61.5" height="37.7"/>
				<polygon class="st27" points="400,544.3 400,322.9 437.2,312 437.2,544.3 				"/>
				<rect x="399.9" y="366.8" class="st28" width="40.9" height="6.5"/>
				<rect x="399.9" y="387.2" class="st28" width="40.9" height="6.5"/>
				<rect x="399.9" y="407.7" class="st28" width="40.9" height="6.5"/>
				<rect x="399.9" y="428.2" class="st28" width="40.9" height="6.5"/>
				<rect x="399.9" y="448.6" class="st28" width="40.9" height="6.5"/>
				<rect x="399.9" y="469.1" class="st28" width="40.9" height="6.5"/>
				<path class="st29" d="M400,327.4c12.4,0,37.2-6.7,37.2-12.4v-9c0,5.7-24.8,12.4-37.2,12.4"/>
				<polyline class="st30" points="435.6,339.2 435.6,554.1 486.8,554.1 486.8,322 435.6,302.9 				"/>
				<polygon class="st9" points="435.6,297.1 435.6,342.8 452.3,355 452.3,303.4 				"/>
				<rect x="436.1" y="546.2" class="st9" width="50.7" height="7.9"/>
			</g>
		</g>
	</g>
</g>
<g id="顔">
	<g id="レイヤー_6">
	</g>
	<g id="contentのコピー">
		<g>
			<g>
				<rect x="820" class="st1" width="400" height="500"/>
				<rect x="820" y="500" class="st2" width="400" height="500"/>
				<rect x="1220" class="st3" width="400" height="500"/>
				<rect x="1220" y="500" class="st4" width="400" height="500"/>
			</g>
			<g>
				
					<image style="overflow:visible;opacity:0.2;enable-background:new    ;" width="463" height="1161" xlink:href="66E56A57.png"  transform="matrix(0.9978 0 0 0.9978 943.5898 268.4248)">
				</image>
				<g>
					<g>
						<path class="st7" d="M1366.4,805.5c0,0,19.3,129.4,24.9,170.2c3,21.9-3.1,33.3-14.9,42.8c-9.7,7.8-38.8,14.9-47.8,0
							c-9-14.9-7-49.8,6-61.7s-6-128.4-6-128.4L1366.4,805.5z"/>
						<path class="st8" d="M1073.4,808.3l-16.8,75.5c0,0-5.1,75.2-28.3,91.3c-18.5,12.8-19,19.9-15.7,25.3c4.2,6.8,19,1.3,31.6-4
							s21.9-14,21.9-14l42-6.3l9.4-142.7L1073.4,808.3z"/>
						<rect x="1173.3" y="593.3" class="st9" width="97.1" height="20.7"/>
						<g>
							<g>
								<polygon id="XMLID_51_" class="st10" points="1263.1,605.6 1263.1,550.4 1180.2,550.4 1180.2,605.6 1172.2,609.1 
									1180.2,614.7 1180.2,634.2 1263.1,634.2 1263.1,614.7 1271.1,609.1 								"/>
							</g>
							<g>
								<defs>
									<polygon id="SVGID_00000168080214875014343780000008668970001593192107_" points="1263.1,605.6 1263.1,550.4 1180.2,550.4 
										1180.2,605.6 1172.2,609.1 1180.2,614.7 1180.2,634.2 1263.1,634.2 1263.1,614.7 1271.1,609.1 									"/>
								</defs>
								<clipPath id="SVGID_00000037651240195205973850000010377830050776917388_">
									<use xlink:href="#SVGID_00000168080214875014343780000008668970001593192107_"  style="overflow:visible;"/>
								</clipPath>
								
									<polyline style="opacity:0.1;clip-path:url(#SVGID_00000037651240195205973850000010377830050776917388_);fill:#913616;enable-background:new    ;" points="
									1176.2,570.3 1208.7,597.4 1279.1,613 1272.5,523.8 1162.8,516.7 								"/>
							</g>
						</g>
						<g>
							<path class="st7" d="M1125.7,454l-5.9,16.7c-0.5,1.4-0.4,2.9,0.2,4.3l18.7,39.7c0.8,1.7,2.2,3,3.9,3.7l11.2,4.7l1.2-63.9
								l-27-6.5C1127,452.6,1126,453.1,1125.7,454z"/>
							<path class="st7" d="M1317.6,454l5.9,16.7c0.5,1.4,0.4,2.9-0.2,4.3l-18.7,39.7c-0.8,1.7-2.2,3-3.9,3.7l-11.2,4.7l-1.2-63.9
								l27-6.5C1316.2,452.6,1317.3,453.1,1317.6,454z"/>
						</g>
						<path class="st12" d="M1160.7,303.1c-25.7,7.5-61.9,65.9-51.1,140.1c0.8-5.9,3.6-15.4,4.8-18c-0.9,19.6,13.3,50.1,17.5,54.2
							c-0.3-3.7,0.6-13.1,1.3-15.7c1.3,5.5,17.2,45.8,17.2,45.8s138.7-4.5,145.4-14.4c2.1-2.7,1.4-3.7,4.1-8.8
							c0.2-0.4,15.4-26.3,15.8-28.5c0.9,5,1.4,16.1,1.4,16.1c3.4-4,25.6-39.9,23.4-100.5c-0.9-24.8-16-51.5-19.4-54
							c3.6,2.5,12.2,8.2,13.5,10.2c-5.7-18.5-42.9-46-82.2-51.9C1209.4,271.4,1173.3,287,1160.7,303.1z"/>
						<path class="st10" d="M1277.5,404.1l-55.9-14.2l-74.3-15.8l-6.5,88.6l13.9,81.2c0.3,1.9,1.3,3.6,2.8,4.8l49.9,41
							c8.2,6.8,20.3,6.8,28.6,0l49.5-40.6c1.8-1.5,2.9-3.5,3.3-5.7l13.8-80.7L1277.5,404.1z"/>
						<path class="st13" d="M1158.8,437.8c0,0,10.1-4.7,11.3-4.6c5.1,0.4,33.9,9.5,37.5,12.2c1.3,0.9,4.8,11.3,4.8,11.3
							s-2.8-15.5-4.1-16.4c-3.8-2.6-32.7-9.5-37.3-10C1169.7,430.1,1158.8,437.8,1158.8,437.8z"/>
						<path class="st14" d="M1236,513.8c-3.2,1.2-11.8,3.9-13.4,3.9c0,0-0.1,0-0.1,0c0,0-0.1,0-0.1,0c-1.6,0-10.2-2.7-13.4-3.9
							c0,0,10.7,7.1,13.4,7.2c0,0,0.1,0,0.1,0s0.1,0,0.1,0C1225.3,521,1236,513.8,1236,513.8z"/>
						<path class="st15" d="M1194.6,539.9c14.6,2,43.7,0.4,58.4-5c1.1-0.4,2.1,0.7,1.6,1.7c-5.3,9.5-19.3,14.6-29.8,15.3
							c-10.8,0.8-25.5-3.4-31.3-10C1192.7,541,1193.4,539.7,1194.6,539.9z"/>
						<g>
							<g>
								<path id="XMLID_50_" class="st15" d="M1185.5,457.3c-12-2.7-21.1,2.7-23.8,9.2c1.7,2.2,6,3.9,9.8,4.6
									c4.6,0.9,23.8,4,30.1,4.5C1201.5,468.6,1197.5,460,1185.5,457.3z"/>
							</g>
							<g>
								<defs>
									<path id="SVGID_00000071542824851939360770000010523236170375044253_" d="M1185.5,457.3c-12-2.7-21.1,2.7-23.8,9.2
										c1.7,2.2,6,3.9,9.8,4.6c4.6,0.9,23.8,4,30.1,4.5C1201.5,468.6,1197.5,460,1185.5,457.3z"/>
								</defs>
								<clipPath id="SVGID_00000165933971225698843560000000827632012079306669_">
									<use xlink:href="#SVGID_00000071542824851939360770000010523236170375044253_"  style="overflow:visible;"/>
								</clipPath>
								
									<ellipse style="clip-path:url(#SVGID_00000165933971225698843560000000827632012079306669_);fill:#4D4D4D;" cx="1185" cy="465.5" rx="10.5" ry="10.1"/>
							</g>
						</g>
						<g>
							<g>
								<path id="XMLID_49_" class="st15" d="M1260.1,456.8c11.2-2.4,19.9,2.7,22.8,9.1c-1.6,2.3-5.9,4.5-9.6,5.4
									c-4.9,1.1-23.8,4.4-29.9,5C1243.2,469.2,1248.7,459.3,1260.1,456.8z"/>
							</g>
							<g>
								<defs>
									<path id="SVGID_00000005963599165132041880000004107114658782581385_" d="M1260.1,456.8c11.2-2.4,19.9,2.7,22.8,9.1
										c-1.6,2.3-5.9,4.5-9.6,5.4c-4.9,1.1-23.8,4.4-29.9,5C1243.2,469.2,1248.7,459.3,1260.1,456.8z"/>
								</defs>
								<clipPath id="SVGID_00000026843067946105054200000010498419477776005306_">
									<use xlink:href="#SVGID_00000005963599165132041880000004107114658782581385_"  style="overflow:visible;"/>
								</clipPath>
								
									<ellipse style="clip-path:url(#SVGID_00000026843067946105054200000010498419477776005306_);fill:#4D4D4D;" cx="1260.9" cy="465.6" rx="10.8" ry="10.4"/>
							</g>
						</g>
						<path class="st14" d="M1218.6,562.1c0.7,2.3,3.9,3.5,5.7,3.4c2.6-0.2,5-2.2,5.5-4.1C1227.2,562.2,1221.2,562.6,1218.6,562.1z"
							/>
						<path class="st12" d="M1179,387.8c11.8,32,55.2,74.5,73.5,79c-7.2-5.4-20.8-28-25.4-40.9c11.6,20.3,27.4,30,34.4,32.7
							c-3.1-3.4-10-15.2-12.2-20.5c12.7,16.2,38.8,31.3,45.3,34.1c1,6.5,1.3,19,1,25.9c5.6-6.7,16.1-25.9,19.4-40.1
							c2.7-11.3,0.5-28.5,0.5-28.5l-82.9-100.6l-77.7,25.2l-26.8,77.8l4.2,32.1c0,0,9.5,32.2,14.9,38.7c-1.4-11.3,0.8-70.6,1.4-77.1
							C1156,421.6,1172.7,406.4,1179,387.8z"/>
						<polyline class="st18" points="1225,545 1234.1,544.4 1237,545.6 1239.5,541.8 1243.5,543.6 1244.3,541.6 1248,540 						"/>
						<path class="st7" d="M1344.6,931.8c-11.3-1.6-30.8,13.6-32.1,27.2s17.6,23.5,20.5,23.2
							C1335.9,981.8,1344.6,931.8,1344.6,931.8z"/>
						<path class="st19" d="M1145.5,1013.5L955.9,969c-2.7-0.6-4.4-3.3-3.7-6l28.9-123.1c0.6-2.7,3.3-4.4,6-3.7l189.6,44.5
							c2.7,0.6,4.4,3.3,3.7,6l-28.9,123.1C1150.8,1012.5,1148.1,1014.2,1145.5,1013.5z"/>
						<g>
							<path class="st15" d="M1080.4,925.6c1.5-6.3,7.3-8.2,7.8-8.3c-1.9-5-6.5-6.7-8.1-7.1c-3.8-1.3-8.2,0.6-10.2,0.1
								c-2-0.5-4.6-3.5-7.7-4.1c-4.1-1-8.6,0.7-11.7,3.9c-6.3,6.6-5.7,18.7-2.8,26c1.4,3.6,3.2,7.6,6.4,8.1s4.8-1,8.7,0
								c3.7,0.9,4.4,3.1,7.8,3.9c3.3,0.8,6.2-1.8,9.1-4.3c3.4-2.9,5.1-6,5.2-6.2C1084.7,937.1,1078.8,933.1,1080.4,925.6z"/>
							<path class="st15" d="M1078.5,905.5c2.3-1.7,4.1-4.4,4.4-7.4c-2.6-0.4-5.9,0.5-8.3,2c-2,1.4-4.1,4.2-4.3,7
								C1073.1,908.1,1076.2,907.2,1078.5,905.5z"/>
						</g>
						
							<ellipse transform="matrix(0.1861 -0.9825 0.9825 0.1861 -112.7445 1865.2341)" class="st8" cx="1069.5" cy="1000.7" rx="30.2" ry="44.5"/>
						
							<rect x="1327.7" y="904.3" transform="matrix(0.9926 -0.1217 0.1217 0.9926 -101.3465 171.6756)" class="st20" width="54.2" height="22.5"/>
						<path class="st21" d="M1391.5,930.6l-6.2,0.8c-1.5,0.2-2.9-0.9-3.1-2.5l-4-32.7c-0.2-1.5,0.9-3,2.4-3.1l6.2-0.8
							c1.5-0.2,2.9,0.9,3.1,2.5l4,32.7C1394.2,929,1393.1,930.4,1391.5,930.6z"/>
						<rect x="1048.3" y="1391.2" class="st22" width="163.3" height="25.7"/>
						<rect x="1153" y="1264.3" class="st8" width="53.3" height="89.1"/>
						<rect x="1145.1" y="1311.7" class="st23" width="66.6" height="70"/>
						<path class="st23" d="M1048.3,1400.4h163.3v-57.1l-146.5,11.1c-9.3,0-16.8,7.4-16.8,16.4L1048.3,1400.4L1048.3,1400.4z"/>
						<line class="st24" x1="1129.4" y1="1347.3" x2="1129.4" y2="1369.8"/>
						<line class="st24" x1="1112.7" y1="1347.3" x2="1112.7" y2="1369.8"/>
						<rect x="1232" y="1391.2" class="st22" width="163.3" height="25.7"/>
						<rect x="1237.3" y="1264.3" class="st8" width="53.3" height="89.1"/>
						<rect x="1232" y="1311.7" class="st23" width="66.6" height="70"/>
						<path class="st23" d="M1395.3,1400.4H1232v-57.1l146.5,11.1c9.3,0,16.8,7.4,16.8,16.4V1400.4z"/>
						<line class="st24" x1="1314.2" y1="1347.3" x2="1314.2" y2="1369.8"/>
						<line class="st24" x1="1331" y1="1347.3" x2="1331" y2="1369.8"/>
						<path class="st25" d="M1229.8,907.8v17h-7.9h-7.9v-17h-76.3v389.5h76.3V972.7h0c0-0.2,0-0.4,0-0.6c0-4.4,3.6-7.9,7.9-7.9
							s7.9,3.5,7.9,7.9c0,0.2,0,0.4,0,0.6h0v324.6h76.3V907.8H1229.8z"/>
						<polygon class="st9" points="1116.1,652.3 1103.4,628.6 1066.1,800.1 1138.3,808.9 						"/>
						
							<rect x="1073" y="770.5" transform="matrix(0.254 -0.9672 0.9672 0.254 33.8042 1668.8083)" class="st26" width="51.4" height="84"/>
						<polygon class="st27" points="1221.8,930.7 1221.8,628.5 1171,613.5 1171,930.7 						"/>
						<rect x="1166.2" y="688.4" class="st28" width="55.8" height="8.8"/>
						<rect x="1166.2" y="716.3" class="st28" width="55.8" height="8.8"/>
						<rect x="1166.2" y="744.2" class="st28" width="55.8" height="8.8"/>
						<rect x="1166.2" y="772.2" class="st28" width="55.8" height="8.8"/>
						<rect x="1166.2" y="800.1" class="st28" width="55.8" height="8.8"/>
						<rect x="1166.2" y="828" class="st28" width="55.8" height="8.8"/>
						<path class="st29" d="M1221.8,634.6c-17,0-50.8-9.1-50.8-16.9v-12.4c0,7.8,33.8,16.9,50.8,16.9"/>
						<polyline class="st30" points="1173.3,650.7 1173.3,944 1103.4,944 1103.4,627.2 1173.3,601.2 						"/>
						<polygon class="st9" points="1173.3,593.3 1173.3,655.7 1150.4,672.4 1150.4,601.9 						"/>
						<rect x="1103.4" y="933.2" class="st9" width="69.2" height="10.8"/>
						<polygon class="st9" points="1327.6,652.3 1340.3,628.6 1377.5,800.1 1305.3,808.9 						"/>
						
							<rect x="1302.9" y="786.9" transform="matrix(0.9672 -0.254 0.254 0.9672 -162.2884 368.2472)" class="st26" width="84" height="51.4"/>
						<polygon class="st27" points="1221.8,930.7 1221.8,628.5 1272.6,613.5 1272.6,930.7 						"/>
						<rect x="1221.6" y="688.4" class="st28" width="55.8" height="8.8"/>
						<rect x="1221.6" y="716.3" class="st28" width="55.8" height="8.8"/>
						<rect x="1221.6" y="744.2" class="st28" width="55.8" height="8.8"/>
						<rect x="1221.6" y="772.2" class="st28" width="55.8" height="8.8"/>
						<rect x="1221.6" y="800.1" class="st28" width="55.8" height="8.8"/>
						<rect x="1221.6" y="828" class="st28" width="55.8" height="8.8"/>
						<path class="st29" d="M1221.8,634.6c17,0,50.8-9.1,50.8-16.9v-12.4c0,7.8-33.8,16.9-50.8,16.9"/>
						<polyline class="st30" points="1270.4,650.7 1270.4,944 1340.3,944 1340.3,627.2 1270.4,601.2 						"/>
						<polygon class="st9" points="1270.4,593.3 1270.4,655.7 1293.2,672.4 1293.2,601.9 						"/>
						<rect x="1271.1" y="933.2" class="st9" width="69.2" height="10.8"/>
					</g>
				</g>
			</g>
		</g>
	</g>
	<rect x="400" y="41.4" class="st3" width="154.3" height="458.6"/>
	<polygon class="st1" points="400,503.9 168.3,507.4 168.3,48.8 400,45.2 	"/>
	<rect x="157.5" y="500" class="st2" width="242.5" height="464"/>
	<rect x="400" y="502.7" class="st4" width="171.5" height="414"/>
	<rect x="399.5" y="499.5" class="st4" width="210.7" height="52.5"/>
	<path class="st34" d="M405.3,454.1"/>
	<path class="st34" d="M392.9,466.6"/>
	<path class="st35" d="M409.4,470.7"/>
</g>
<g id="guide" class="st0">
</g>
<g>
	<path class="st15" d="M261.6,403v156h-33v-61c0-21.4,0.4-42.6,2.2-64h-2L199,559h-29.4l-30.4-125h-2c1.6,21.2,2,42.2,2,64v61h-33
		V403H161l15,61.6c4,16,7.4,38,8.4,53.2h2c0.8-15.2,4-37.6,7.6-53l14.6-61.8H261.6z"/>
	<path class="st15" d="M389.2,532v27h-95.6V403h93.8v27h-57.8v37h52v26h-52v39H389.2z"/>
	<path class="st15" d="M535.8,403v156h-52l-33.2-93c-3.8-10.4-6.6-21.2-9-32h-1.8c2.6,25.6,3.8,61.6,3.8,83.4V559h-32.4V403h52
		l33.2,93c3.8,10.4,6.8,21.2,9.2,32h1.8c-2.6-25.8-4-53.2-4-79.2V403H535.8z"/>
	<path class="st15" d="M693.8,403v100c0,40.2-26,58-63,58c-36.8,0-63-17.8-63-58V403h37v98.4c0,23.6,10.8,33.4,26,33.4
		c15.2,0,26-9.8,26-33.4V403H693.8z"/>
</g>
</svg>
