<?xml version="1.0" encoding="utf-8"?>
<!-- Generator: Adobe Illustrator 25.4.1, SVG Export Plug-In . SVG Version: 6.00 Build 0)  -->
<svg version="1.1" xmlns="http://www.w3.org/2000/svg" xmlns:xlink="http://www.w3.org/1999/xlink" x="0px" y="0px"
	 viewBox="0 0 800 200" style="enable-background:new 0 0 800 200;" xml:space="preserve">
<style type="text/css">
	.st0{fill:#151515;}
	.st1{display:none;}
	.st2{display:inline;}
	.st3{fill:#FFFFFF;}
	.st4{font-family:'Courier';}
	.st5{font-size:88px;}
	.st6{letter-spacing:-8;}
	.st7{font-size:54px;}
	.st8{font-family:'PTMono-Regular';}
	.st9{font-size:72px;}
	.st10{display:none;fill:#FFFFFF;}
	.st11{fill:none;stroke:#000000;stroke-width:3;stroke-linecap:square;stroke-miterlimit:10;}
	.st12{fill:none;stroke:#FFFFFF;stroke-width:10;stroke-miterlimit:10;}
	.st13{fill:none;stroke:#FFFFFF;stroke-width:4;stroke-miterlimit:10;}
	.st14{fill:none;stroke:#000000;stroke-width:4;stroke-miterlimit:10;}
	.st15{font-size:64px;}
</style>
<g id="レイヤー_2">
	<g id="logo_1_">
		<polygon class="st0" points="705.2,169.5 23,169.5 94.8,30.5 777,30.5 		"/>
	</g>
</g>
<g id="レイヤー_1" class="st1">
	<g class="st2">
		<text transform="matrix(1 -1.470000e-03 1.470000e-03 1 134.4353 120.5882)"><tspan x="0" y="0" class="st3 st4 st5">sin</tspan><tspan x="158.4" y="0" class="st3 st4 st5 st6"> </tspan><tspan x="202.4" y="0" class="st3 st4 st5">studio</tspan></text>
		<text transform="matrix(1 -1.470000e-03 1.470000e-03 1 296.4307 117.3375)"><tspan x="0" y="0" class="st3 st4 st5">(     </tspan><tspan x="316.9" y="-9.8" class="st3 st4 st7"> </tspan><tspan x="349.3" y="0" class="st3 st4 st5">)</tspan></text>
		<rect x="712" y="50.4" transform="matrix(1 -1.474924e-03 1.474924e-03 1 -0.1458 1.0584)" class="st3" width="11" height="98"/>
		<text transform="matrix(1 -1.470000e-03 1.470000e-03 1 66.8902 123.756)" class="st3 st8 st9">&gt;</text>
	</g>
</g>
<g id="レイヤー_1のコピー">

		<rect x="610.9" y="63.4" transform="matrix(1 -1.474924e-03 1.474924e-03 1 -0.1468 0.9064)" class="st10" width="7.1" height="73.1"/>
	<g>
		<g>
			<path class="st3" d="M205.4,134.6h-78c-3.8,0-7-3.1-7-7V74.9c0-3.8,3.2-7,7-7h78c3.9,0,7,3.2,7,7v52.7
				C212.4,131.4,209.2,134.6,205.4,134.6z"/>
			<line class="st11" x1="131.6" y1="100.6" x2="200.3" y2="100.6"/>
			<g>
				<polyline class="st12" points="163.7,95.3 163.8,95.7 164,96.1 164.2,96.5 164.3,96.9 164.5,97.3 164.7,97.7 164.8,98.1
					165,98.5 165.2,98.9 165.4,99.3 165.5,99.7 165.7,100.1 165.9,100.6 166,101 166.2,101.4 166.4,101.8 166.5,102.2 166.7,102.6
					166.9,103 167.1,103.4 167.2,103.8 167.4,104.2 167.6,104.7 167.7,105.1 167.9,105.5 168.1,105.9 168.2,106.3 				"/>
				<polyline class="st13" points="163.7,95.3 163.8,95.7 164,96.1 164.2,96.5 164.3,96.9 164.5,97.3 164.7,97.7 164.8,98.1
					165,98.5 165.2,98.9 165.4,99.3 165.5,99.7 165.7,100.1 165.9,100.6 166,101 166.2,101.4 166.4,101.8 166.5,102.2 166.7,102.6
					166.9,103 167.1,103.4 167.2,103.8 167.4,104.2 167.6,104.7 167.7,105.1 167.9,105.5 168.1,105.9 168.2,106.3 				"/>
			</g>
			<polyline class="st14" points="135.5,101 135.6,100.6 135.8,100.1 136,99.7 136.2,99.3 136.3,98.9 136.5,98.5 136.7,98.1
				136.8,97.7 137,97.3 137.2,96.9 137.3,96.5 137.5,96.1 137.7,95.7 137.9,95.3 138,94.9 138.2,94.5 138.4,94.1 138.5,93.7
				138.7,93.3 138.9,92.9 139,92.5 139.2,92.2 139.4,91.8 139.5,91.4 139.7,91 139.9,90.7 140.1,90.3 140.2,89.9 140.4,89.6
				140.6,89.2 140.7,88.8 140.9,88.5 141.1,88.2 141.2,87.8 141.4,87.5 141.6,87.1 141.8,86.8 141.9,86.5 142.1,86.2 142.3,85.8
				142.4,85.5 142.6,85.2 142.8,84.9 142.9,84.6 143.1,84.3 143.3,84 143.5,83.8 143.6,83.5 143.8,83.2 144,82.9 144.1,82.7
				144.3,82.4 144.5,82.2 144.6,81.9 144.8,81.7 145,81.5 145.2,81.2 145.3,81 145.5,80.8 145.7,80.6 145.8,80.4 146,80.2 146.2,80
				146.3,79.8 146.5,79.6 146.7,79.5 146.9,79.3 147,79.1 147.2,79 147.4,78.9 147.5,78.7 147.7,78.6 147.9,78.5 148,78.3
				148.2,78.2 148.4,78.1 148.5,78 148.7,77.9 148.9,77.9 149.1,77.8 149.2,77.7 149.4,77.7 149.6,77.6 149.7,77.6 149.9,77.5
				150.1,77.5 150.2,77.5 150.4,77.4 150.6,77.4 150.8,77.4 150.9,77.4 151.1,77.4 151.3,77.5 151.4,77.5 151.6,77.5 151.8,77.6
				151.9,77.6 152.1,77.7 152.3,77.7 152.5,77.8 152.6,77.9 152.8,77.9 153,78 153.1,78.1 153.3,78.2 153.5,78.3 153.6,78.5
				153.8,78.6 154,78.7 154.2,78.9 154.3,79 154.5,79.1 154.7,79.3 154.8,79.5 155,79.6 155.2,79.8 155.3,80 155.5,80.2 155.7,80.4
				155.8,80.6 156,80.8 156.2,81 156.4,81.2 156.5,81.5 156.7,81.7 156.9,81.9 157,82.2 157.2,82.4 157.4,82.7 157.5,82.9
				157.7,83.2 157.9,83.5 158.1,83.8 158.2,84 158.4,84.3 158.6,84.6 158.7,84.9 158.9,85.2 159.1,85.5 159.2,85.8 159.4,86.2
				159.6,86.5 159.8,86.8 159.9,87.1 160.1,87.5 160.3,87.8 160.4,88.2 160.6,88.5 160.8,88.8 160.9,89.2 161.1,89.6 161.3,89.9
				161.5,90.3 161.6,90.7 161.8,91 162,91.4 162.1,91.8 162.3,92.2 162.5,92.5 162.6,92.9 162.8,93.3 163,93.7 163.1,94.1
				163.3,94.5 163.5,94.9 163.7,95.3 163.8,95.7 164,96.1 164.2,96.5 164.3,96.9 164.5,97.3 164.7,97.7 164.8,98.1 165,98.5
				165.2,98.9 165.4,99.3 165.5,99.7 165.7,100.1 165.9,100.6 166,101 166.2,101.4 166.4,101.8 166.5,102.2 166.7,102.6 166.9,103
				167.1,103.4 167.2,103.8 167.4,104.2 167.6,104.7 167.7,105.1 167.9,105.5 168.1,105.9 168.2,106.3 168.4,106.7 168.6,107.1
				168.8,107.5 168.9,107.9 169.1,108.2 169.3,108.6 169.4,109 169.6,109.4 169.8,109.8 169.9,110.2 170.1,110.5 170.3,110.9
				170.4,111.3 170.6,111.7 170.8,112 171,112.4 171.1,112.7 171.3,113.1 171.5,113.4 171.6,113.8 171.8,114.1 172,114.5
				172.1,114.8 172.3,115.1 172.5,115.5 172.7,115.8 172.8,116.1 173,116.4 173.2,116.7 173.3,117 173.5,117.3 173.7,117.6
				173.8,117.9 174,118.2 174.2,118.5 174.4,118.7 174.5,119 174.7,119.3 174.9,119.5 175,119.8 175.2,120 175.4,120.3 175.5,120.5
				175.7,120.7 175.9,120.9 176.1,121.1 176.2,121.4 176.4,121.6 176.6,121.8 176.7,121.9 176.9,122.1 177.1,122.3 177.2,122.5
				177.4,122.6 177.6,122.8 177.7,122.9 177.9,123.1 178.1,123.2 178.3,123.4 178.4,123.5 178.6,123.6 178.8,123.7 178.9,123.8
				179.1,123.9 179.3,124 179.4,124.1 179.6,124.2 179.8,124.2 180,124.3 180.1,124.3 180.3,124.4 180.5,124.4 180.6,124.5
				180.8,124.5 181,124.5 181.1,124.5 181.3,124.5 181.5,124.5 181.7,124.5 181.8,124.5 182,124.5 182.2,124.4 182.3,124.4
				182.5,124.3 182.7,124.3 182.8,124.2 183,124.2 183.2,124.1 183.4,124 183.5,123.9 183.7,123.8 183.9,123.7 184,123.6
				184.2,123.5 184.4,123.4 184.5,123.2 184.7,123.1 184.9,122.9 185,122.8 185.2,122.6 185.4,122.5 185.6,122.3 185.7,122.1
				185.9,121.9 186.1,121.8 186.2,121.6 186.4,121.4 186.6,121.1 186.7,120.9 186.9,120.7 187.1,120.5 187.3,120.3 187.4,120
				187.6,119.8 187.8,119.5 187.9,119.3 188.1,119 188.3,118.7 188.4,118.5 188.6,118.2 188.8,117.9 189,117.6 189.1,117.3
				189.3,117 189.5,116.7 189.6,116.4 189.8,116.1 190,115.8 190.1,115.5 190.3,115.1 190.5,114.8 190.7,114.5 190.8,114.1
				191,113.8 191.2,113.4 191.3,113.1 191.5,112.7 191.7,112.4 191.8,112 192,111.7 192.2,111.3 192.4,110.9 192.5,110.5
				192.7,110.2 192.9,109.8 193,109.4 193.2,109 193.4,108.6 193.5,108.2 193.7,107.9 193.9,107.5 194,107.1 194.2,106.7
				194.4,106.3 194.6,105.9 194.7,105.5 194.9,105.1 195.1,104.7 195.2,104.2 195.4,103.8 195.6,103.4 195.7,103 195.9,102.6
				196.1,102.2 196.3,101.8 196.4,101.4 196.6,101 			"/>
		</g>
		<g>
			<g>
				<path class="st3" d="M264.7,87.1c0-0.8,0.2-1.4,0.5-1.8c0.3-0.4,0.8-0.6,1.3-0.6c0.5,0,1,0.2,1.3,0.6c0.3,0.4,0.5,1,0.5,1.9
					l0,6.2c0,0.9-0.2,1.5-0.5,1.8c-0.3,0.4-0.8,0.6-1.3,0.6c-0.5,0-0.9-0.2-1.2-0.5c-0.3-0.3-0.5-0.8-0.6-1.5
					c-0.2-1.7-1.1-3.1-2.7-4.2c-2.4-1.6-5.5-2.4-9.3-2.4c-4,0-7.2,0.8-9.4,2.5c-1.7,1.2-2.5,2.6-2.5,4.1c0,1.7,1,3.1,3,4.3
					c1.4,0.8,4,1.4,7.8,1.8c5,0.5,8.5,1.1,10.4,1.8c2.8,1,4.9,2.4,6.2,4.2c1.4,1.8,2,3.7,2,5.8c0,3.1-1.5,5.8-4.4,8.2
					s-7.3,3.6-13,3.6c-5.7,0-10.4-1.4-14-4.3c0,1-0.1,1.6-0.2,1.9c-0.1,0.3-0.3,0.5-0.6,0.7c-0.3,0.2-0.6,0.3-1,0.3
					c-0.5,0-0.9-0.2-1.3-0.6c-0.3-0.4-0.5-1-0.5-1.8l0-7.4c0-0.9,0.2-1.5,0.5-1.8c0.3-0.4,0.8-0.6,1.3-0.6c0.5,0,1,0.2,1.3,0.5
					c0.4,0.4,0.5,0.8,0.5,1.4c0,1.3,0.3,2.4,1,3.3c1,1.4,2.6,2.5,4.8,3.4c2.2,0.9,4.9,1.3,8.1,1.3c4.7,0,8.2-0.9,10.5-2.6
					c2.3-1.8,3.4-3.6,3.4-5.5c0-2.2-1.2-4-3.5-5.4c-2.4-1.3-5.8-2.2-10.3-2.7c-4.5-0.5-7.7-1-9.6-1.8c-1.9-0.7-3.5-1.9-4.6-3.3
					c-1.1-1.5-1.6-3.1-1.6-4.8c0-3.1,1.5-5.6,4.5-7.4c3-1.8,6.7-2.7,10.9-2.7C257.5,83.5,261.5,84.7,264.7,87.1z"/>
				<path class="st3" d="M294.5,84.7l0,33.6l14.2,0c0.9,0,1.5,0.2,1.9,0.5c0.4,0.3,0.6,0.8,0.6,1.3c0,0.5-0.2,0.9-0.6,1.3
					c-0.4,0.3-1,0.5-1.9,0.5l-32,0c-0.9,0-1.5-0.2-1.8-0.5c-0.4-0.3-0.6-0.8-0.6-1.3c0-0.5,0.2-1,0.6-1.3c0.4-0.3,1-0.5,1.8-0.5
					l14.2,0l0-29.9l-10.5,0c-0.9,0-1.5-0.2-1.9-0.5s-0.6-0.8-0.6-1.3c0-0.5,0.2-1,0.6-1.3c0.4-0.3,1-0.5,1.9-0.5L294.5,84.7z
					 M294.4,66.2l0,9.3l-5.3,0l0-9.3L294.4,66.2z"/>
				<path class="st3" d="M326.6,84.7l0,5.5c2.5-2.6,4.8-4.3,6.8-5.3c2-1,4.3-1.5,6.9-1.5c2.8,0,5.3,0.6,7.5,1.8
					c1.6,0.9,3.1,2.3,4.4,4.3c1.3,2,2,4,2,6.1l0,22.7l3.1,0c0.9,0,1.5,0.2,1.8,0.5c0.4,0.3,0.6,0.8,0.6,1.3c0,0.5-0.2,0.9-0.6,1.3
					c-0.4,0.3-1,0.5-1.8,0.5l-9.7,0c-0.9,0-1.5-0.2-1.9-0.5c-0.4-0.3-0.6-0.8-0.6-1.3c0-0.5,0.2-1,0.6-1.3c0.4-0.3,1-0.5,1.9-0.5
					l3,0l0-22.1c0-2.5-0.9-4.7-2.8-6.5c-1.9-1.8-4.4-2.6-7.5-2.6c-2.4,0-4.4,0.5-6.2,1.4s-4.2,3.4-7.5,7.2l0,22.6l4.1,0
					c0.9,0,1.5,0.2,1.8,0.5c0.4,0.3,0.6,0.8,0.6,1.3c0,0.5-0.2,0.9-0.6,1.3c-0.4,0.3-1,0.5-1.8,0.5l-11.8,0c-0.9,0-1.5-0.2-1.8-0.5
					c-0.4-0.3-0.6-0.8-0.6-1.3c0-0.5,0.2-1,0.6-1.3c0.4-0.3,1-0.5,1.8-0.5l4.1,0l0-29.9l-3.1,0c-0.9,0-1.5-0.2-1.8-0.5
					c-0.4-0.3-0.6-0.8-0.6-1.3c0-0.5,0.2-0.9,0.6-1.3c0.4-0.3,1-0.5,1.8-0.5L326.6,84.7z"/>
				<path class="st3" d="M375.1,100.4c0-3.3,0.4-6.8,1.3-10.5c0.9-3.7,2.5-8,4.9-12.8c2.4-4.8,4.2-7.8,5.3-8.8
					c0.3-0.3,0.7-0.5,1.1-0.5c0.5,0,1,0.2,1.3,0.5c0.4,0.3,0.5,0.8,0.5,1.2c0,0.3-0.1,0.6-0.3,0.9c-3.1,5.8-5.4,11-6.7,15.7
					c-1.3,4.7-2,9.4-2,14.1c0,4.7,0.7,9.4,2,14.1c1.4,4.7,3.6,9.9,6.8,15.7c0.2,0.3,0.3,0.7,0.3,0.9c0,0.5-0.2,0.9-0.5,1.3
					c-0.4,0.4-0.8,0.5-1.3,0.5c-0.4,0-0.8-0.2-1.1-0.5c-1.1-1-2.8-3.8-5.2-8.5c-2.4-4.7-4.1-8.9-5-12.5
					C375.6,107.8,375.1,104.1,375.1,100.4z"/>
				<path class="st3" d="M427.4,86.9c0-0.8,0.2-1.4,0.5-1.8c0.3-0.4,0.8-0.6,1.3-0.6c0.5,0,1,0.2,1.3,0.6c0.3,0.4,0.5,1,0.5,1.9
					l0,6.2c0,0.9-0.2,1.5-0.5,1.8c-0.3,0.4-0.8,0.6-1.3,0.6c-0.5,0-0.9-0.2-1.2-0.5c-0.3-0.3-0.5-0.8-0.6-1.5
					c-0.2-1.7-1.1-3.1-2.7-4.2c-2.4-1.6-5.5-2.4-9.3-2.4c-4,0-7.2,0.8-9.4,2.5c-1.7,1.2-2.5,2.6-2.5,4.1c0,1.7,1,3.1,3,4.3
					c1.4,0.8,4,1.4,7.8,1.8c5,0.5,8.5,1.1,10.4,1.8c2.8,1,4.9,2.4,6.2,4.2c1.4,1.8,2,3.7,2,5.8c0,3.1-1.5,5.8-4.4,8.2
					c-2.9,2.4-7.3,3.6-13,3.6s-10.4-1.4-14-4.3c0,1-0.1,1.6-0.2,1.9c-0.1,0.3-0.3,0.5-0.6,0.7c-0.3,0.2-0.6,0.3-1,0.3
					c-0.5,0-0.9-0.2-1.3-0.6c-0.3-0.4-0.5-1-0.5-1.8l0-7.4c0-0.9,0.2-1.5,0.5-1.8c0.3-0.4,0.8-0.6,1.3-0.6c0.5,0,1,0.2,1.3,0.5
					c0.4,0.4,0.5,0.8,0.5,1.4c0,1.3,0.3,2.4,1,3.3c1,1.4,2.6,2.5,4.8,3.4c2.2,0.9,4.9,1.3,8.1,1.3c4.7,0,8.2-0.9,10.5-2.6
					c2.3-1.8,3.4-3.6,3.4-5.5c0-2.2-1.2-4-3.5-5.4c-2.4-1.3-5.8-2.2-10.3-2.7c-4.5-0.5-7.7-1-9.6-1.8c-1.9-0.7-3.5-1.9-4.6-3.3
					c-1.1-1.5-1.6-3.1-1.6-4.8c0-3.1,1.5-5.6,4.5-7.4c3-1.8,6.7-2.7,10.9-2.7C420.2,83.2,424.3,84.4,427.4,86.9z"/>
				<path class="st3" d="M451.1,84.5l19.6,0c0.9,0,1.5,0.2,1.8,0.5s0.6,0.8,0.6,1.3c0,0.5-0.2,0.9-0.6,1.3c-0.4,0.3-1,0.5-1.8,0.5
					l-19.6,0l0,24c0,2.1,0.8,3.8,2.5,5.2c1.7,1.4,4.1,2.1,7.4,2.1c2.4,0,5.1-0.4,7.9-1.1c2.8-0.7,5-1.6,6.6-2.5
					c0.6-0.4,1-0.6,1.4-0.6c0.5,0,0.9,0.2,1.2,0.5c0.3,0.4,0.5,0.8,0.5,1.3c0,0.4-0.2,0.8-0.6,1.2c-0.9,0.9-3.1,2-6.7,3.1
					s-6.9,1.7-10.2,1.7c-4.2,0-7.6-1-10.1-3c-2.5-2-3.7-4.6-3.8-8l0-24l-6.7,0c-0.9,0-1.5-0.2-1.8-0.5s-0.6-0.8-0.6-1.3
					c0-0.5,0.2-0.9,0.6-1.3c0.4-0.3,1-0.5,1.8-0.5l6.7,0l0-10.7c0-0.9,0.2-1.5,0.5-1.8c0.3-0.4,0.8-0.6,1.3-0.6c0.5,0,1,0.2,1.3,0.6
					c0.3,0.4,0.5,1,0.5,1.8L451.1,84.5z"/>
				<path class="st3" d="M516.4,121.6l0-5.3c-4.9,4.5-10.2,6.7-16,6.7c-3.5,0-6.2-1-8-2.9c-2.4-2.5-3.6-5.5-3.6-8.8l0-23.3l-4.9,0
					c-0.9,0-1.5-0.2-1.8-0.5c-0.4-0.3-0.6-0.8-0.6-1.3c0-0.5,0.2-0.9,0.6-1.3c0.4-0.3,1-0.5,1.8-0.5l8.5,0l0,26.9
					c0,2.3,0.8,4.3,2.2,5.8c1.5,1.5,3.4,2.3,5.6,2.3c5.9,0,11.3-2.7,16.1-8.1l0-23.3l-6.7,0c-0.9,0-1.5-0.2-1.8-0.5
					s-0.6-0.8-0.6-1.3c0-0.5,0.2-0.9,0.6-1.3c0.4-0.3,1-0.5,1.8-0.5l10.3,0l0,33.6l3.1,0c0.9,0,1.5,0.2,1.8,0.5
					c0.4,0.3,0.6,0.8,0.6,1.3c0,0.5-0.2,0.9-0.6,1.3c-0.4,0.3-1,0.5-1.8,0.5L516.4,121.6z"/>
				<path class="st3" d="M567,67.6l0.1,50.3l4.8,0c0.9,0,1.5,0.2,1.9,0.5c0.4,0.3,0.6,0.8,0.6,1.3c0,0.5-0.2,0.9-0.6,1.3
					s-1,0.5-1.9,0.5l-8.5,0l0-7.2c-4.2,5.7-9.5,8.6-15.9,8.6c-3.3,0-6.4-0.9-9.4-2.6c-3-1.7-5.4-4.2-7.1-7.4
					c-1.7-3.2-2.6-6.5-2.6-9.9c0-3.4,0.9-6.8,2.6-10c1.7-3.2,4.1-5.7,7.1-7.4c3-1.8,6.1-2.6,9.4-2.6c6.3,0,11.6,2.8,15.9,8.6l0-20.4
					l-4.8,0c-0.9,0-1.5-0.2-1.9-0.5c-0.4-0.3-0.6-0.8-0.6-1.3c0-0.5,0.2-0.9,0.6-1.3c0.4-0.3,1-0.5,1.9-0.5L567,67.6z M563.4,103
					c0-4.6-1.6-8.4-4.7-11.6c-3.1-3.1-6.8-4.7-11-4.7c-4.3,0-8,1.6-11.1,4.7c-3.1,3.2-4.6,7-4.6,11.6c0,4.6,1.6,8.4,4.7,11.6
					c3.1,3.2,6.8,4.7,11.1,4.7c4.3,0,7.9-1.6,11-4.8C561.9,111.4,563.4,107.5,563.4,103z"/>
				<path class="st3" d="M601.5,84.2l0,33.6l14.2,0c0.9,0,1.5,0.2,1.9,0.5c0.4,0.3,0.6,0.8,0.6,1.3c0,0.5-0.2,0.9-0.6,1.3
					s-1,0.5-1.9,0.5l-32,0c-0.9,0-1.5-0.2-1.8-0.5s-0.6-0.8-0.6-1.3c0-0.5,0.2-1,0.6-1.3c0.4-0.3,1-0.5,1.8-0.5l14.2,0l0-29.9
					l-10.5,0c-0.9,0-1.5-0.2-1.9-0.5c-0.4-0.3-0.6-0.8-0.6-1.3c0-0.5,0.2-1,0.6-1.3c0.4-0.3,1-0.5,1.9-0.5L601.5,84.2z M601.3,65.7
					l0,9.3l-5.3,0l0-9.3L601.3,65.7z"/>
				<path class="st3" d="M661.1,102.9c0,5.5-2,10.2-5.9,14.1c-3.9,3.9-8.7,5.9-14.2,5.9c-5.6,0-10.4-1.9-14.3-5.8
					c-3.9-3.9-5.9-8.6-5.9-14.1c0-5.5,1.9-10.2,5.9-14.1c3.9-3.9,8.7-5.9,14.3-5.9c5.6,0,10.3,1.9,14.3,5.8
					C659.1,92.6,661.1,97.3,661.1,102.9z M657.4,102.9c0-4.5-1.6-8.4-4.9-11.6c-3.2-3.2-7.1-4.8-11.7-4.8c-4.6,0-8.5,1.6-11.7,4.8
					c-3.2,3.2-4.8,7-4.8,11.5c0,4.5,1.6,8.3,4.9,11.5c3.2,3.2,7.1,4.8,11.7,4.8c4.6,0,8.5-1.6,11.7-4.8
					C655.8,111.2,657.4,107.4,657.4,102.9z"/>
				<path class="st3" d="M680.8,100c0,3.3-0.4,6.8-1.3,10.5c-0.9,3.7-2.5,8-4.9,12.8c-2.4,4.9-4.2,7.8-5.3,8.8
					c-0.3,0.3-0.7,0.5-1.1,0.5c-0.5,0-1-0.2-1.3-0.5c-0.4-0.4-0.5-0.8-0.5-1.3c0-0.3,0.1-0.6,0.3-0.9c3.1-5.8,5.4-11,6.7-15.7
					c1.3-4.7,2-9.4,2-14.1c0-4.7-0.7-9.4-2-14.1c-1.4-4.7-3.6-9.9-6.8-15.7c-0.2-0.3-0.3-0.7-0.3-0.9c0-0.5,0.2-0.9,0.5-1.2
					c0.4-0.3,0.8-0.5,1.3-0.5c0.4,0,0.8,0.2,1.1,0.5c1.1,1,2.8,3.8,5.2,8.5c2.4,4.7,4.1,8.9,5,12.5C680.3,92.6,680.8,96.3,680.8,100
					z"/>
			</g>
			<text transform="matrix(1 -1.470000e-03 1.470000e-03 1 177.2774 124.1698)" class="st10 st8 st15">&gt;</text>

				<rect x="250.6" y="118.1" transform="matrix(-1.470436e-03 -1 1 -1.470436e-03 111.6363 395.7059)" class="st10" width="5.5" height="48"/>
		</g>
	</g>
</g>
</svg>
